<svg xmlns="http://www.w3.org/2000/svg" xml:space="preserve" width="800" height="800" viewBox="0 0 512 512"><circle cx="237.733" cy="235.36" r="153.697" style="fill:#f4b2b0"/><path d="M237.735 403.976c-45.039 0-87.382-17.54-119.231-49.387-5.829-5.829-5.829-15.28 0-21.11 5.829-5.827 15.28-5.827 21.11 0 54.104 54.105 142.14 54.105 196.244 0 54.105-54.104 54.105-142.14 0-196.244-54.104-54.104-142.14-54.105-196.244 0-5.827 5.829-15.279 5.827-21.109 0-5.829-5.829-5.829-15.28 0-21.11 65.743-65.743 172.718-65.743 238.461 0 65.745 65.745 65.745 172.718 0 238.463-31.849 31.848-74.192 49.388-119.231 49.388z" style="fill:#b3404a"/><path d="M237.735 470.715c-129.776 0-235.358-105.581-235.358-235.358 0-62.867 24.481-121.971 68.935-166.424C115.764 24.481 174.868 0 237.735 0c129.776 0 235.358 105.581 235.358 235.358 0 8.242-6.683 14.926-14.926 14.926s-14.926-6.684-14.926-14.926c0-113.315-92.19-205.505-205.505-205.505-54.892 0-106.5 21.376-145.315 60.191S32.23 180.465 32.23 235.359c0 113.315 92.189 205.505 205.505 205.505 57.428 0 110.691-23.088 149.979-65.009 5.636-6.015 15.082-6.32 21.098-.685 6.015 5.638 6.321 15.083.684 21.099-44.342 47.311-106.946 74.446-171.761 74.446z" style="fill:#b3404a"/><path d="M250.054 223.787v-43.772c17.471 3.064 20.098 12.749 20.494 18.443a2.772 2.772 0 0 0 2.769 2.587h19.082c1.603 0 2.864-1.357 2.782-2.957-1.239-24.008-17.694-39.455-45.127-42.924v-14.72a2.778 2.778 0 0 0-2.778-2.778h-19.082a2.778 2.778 0 0 0-2.778 2.778v14.72c-28.544 3.609-45.202 20.185-45.202 45.881s16.659 42.27 45.202 45.879v43.772c-17.471-3.064-20.098-12.749-20.494-18.443a2.772 2.772 0 0 0-2.769-2.587h-19.082c-1.603 0-2.864 1.357-2.782 2.957 1.239 24.008 17.694 39.455 45.127 42.924v14.72a2.778 2.778 0 0 0 2.778 2.778h19.082a2.778 2.778 0 0 0 2.778-2.778v-14.72c28.544-3.609 45.202-20.185 45.202-45.881-.001-25.694-16.659-42.269-45.202-45.879zm-24.64-1.709c-20.56-3.605-20.564-16.379-20.564-21.03s.004-17.425 20.564-21.031v42.061zm24.64 68.621v-42.063c20.56 3.605 20.564 16.38 20.564 21.031s-.005 17.426-20.564 21.032zM505.252 449.988c-5.829-5.826-15.28-5.827-21.109 0l-11.05 11.05v-142.82c0-8.242-6.683-14.926-14.926-14.926s-14.926 6.684-14.926 14.926v142.82l-11.052-11.051c-5.829-5.827-15.28-5.827-21.109 0-5.829 5.829-5.829 15.28 0 21.11l36.532 36.531c2.915 2.914 6.735 4.372 10.554 4.372s7.639-1.458 10.555-4.372l36.531-36.531c5.829-5.829 5.829-15.28 0-21.109z" style="fill:#b3404a"/></svg>