<svg xmlns="http://www.w3.org/2000/svg" xml:space="preserve" width="800" height="800" viewBox="0 0 512.001 512.001"><circle cx="252.109" cy="241.331" r="157.801" style="fill:#cff09e"/><path d="M264.762 229.451v-44.94c17.939 3.146 20.636 13.09 21.041 18.937a2.847 2.847 0 0 0 2.843 2.657h19.593c1.645 0 2.94-1.393 2.856-3.035-1.271-24.649-18.167-40.509-46.332-44.071v-15.114a2.852 2.852 0 0 0-2.852-2.852H242.32a2.852 2.852 0 0 0-2.852 2.852v15.114c-29.306 3.706-46.41 20.724-46.41 47.106s17.104 43.399 46.41 47.105v44.942c-17.939-3.146-20.636-13.09-21.041-18.937a2.847 2.847 0 0 0-2.843-2.657h-19.593c-1.645 0-2.94 1.393-2.856 3.035 1.271 24.649 18.167 40.509 46.332 44.071v15.114a2.852 2.852 0 0 0 2.852 2.852h19.591a2.852 2.852 0 0 0 2.852-2.852v-15.115c29.306-3.706 46.41-20.724 46.41-47.106s-17.104-43.4-46.41-47.106zm-25.296-1.756c-21.109-3.701-21.113-16.816-21.113-21.592 0-4.775.005-17.892 21.113-21.593v43.185zm25.296 70.454v-43.185c21.109 3.701 21.113 16.817 21.113 21.593 0 4.775-.003 17.89-21.113 21.592z" style="fill:#507c5c"/><path d="M501.086 340.224a15.02 15.02 0 0 0-4.419-10.605c-2.822-2.808-6.688-4.347-10.624-4.372l-59.006.129c-8.29.018-14.995 6.753-14.977 15.042.018 8.28 6.735 14.979 15.01 14.979h.033l25.706-.057-93.787 83.921-26.805-44.796c15.156-7.916 29.376-18.228 42.091-30.942 67.377-67.379 67.377-177.009 0-244.386s-177.007-67.377-244.386 0c-5.861 5.861-5.863 15.366 0 21.229 5.863 5.86 15.367 5.861 21.227 0 55.675-55.675 146.261-55.672 201.932 0 55.672 55.672 55.672 146.258 0 201.93a142.213 142.213 0 0 1-36.327 26.328l-2.029-3.392a15.013 15.013 0 0 0-11.038-7.19 15.018 15.018 0 0 0-12.457 4.284l-20.483 20.483c-42.493 5.546-87.021-7.934-119.597-40.511-5.861-5.86-15.366-5.86-21.227 0-5.861 5.861-5.861 15.366 0 21.229 30.593 30.592 69.897 47.292 110.003 50.104l-34.139 34.139a15.067 15.067 0 0 0-2.227-.728C107.73 424.508 40.805 339.919 40.805 241.328c0-56.444 21.981-109.507 61.891-149.417S195.671 30.02 252.115 30.02c116.515 0 211.31 94.793 211.31 211.308 0 8.289 6.72 15.01 15.01 15.01s15.01-6.721 15.01-15.01C493.445 108.26 385.185 0 252.115 0 187.653 0 127.049 25.103 81.468 70.684S10.785 176.868 10.785 241.328c0 54.716 18.82 108.308 52.991 150.905 30.329 37.807 71.671 65.774 117.653 79.888l-14.255 14.255c-5.861 5.861-5.861 15.366 0 21.229 2.931 2.93 6.773 4.396 10.614 4.396s7.684-1.466 10.614-4.396l96.701-96.701a173.23 173.23 0 0 0 19.076-4.83L342.6 470.28a15.009 15.009 0 0 0 22.891 3.478l105.663-94.547.044 20.085c.018 8.28 6.735 14.979 15.01 14.979h.033c8.29-.018 14.995-6.753 14.977-15.042l-.132-59.009z" style="fill:#507c5c"/></svg>