<svg aria-hidden="true" style="position: absolute; width: 0; height: 0; overflow: hidden;" version="1.1" xmlns="http://www.w3.org/2000/svg" xmlns:xlink="http://www.w3.org/1999/xlink">
<defs>
<symbol id="icon-add" viewBox="0 0 32 32">
<path fill="#507c5c" style="fill: var(--color4, #507c5c)" d="M31.318 21.264c-0.001-0.259-0.106-0.493-0.276-0.663l-0-0c-0.176-0.175-0.418-0.272-0.664-0.273l-3.688 0.008c-0.518 0.001-0.937 0.422-0.936 0.94s0.421 0.936 0.938 0.936h0.002l1.607-0.004-5.862 5.245-1.675-2.8c0.947-0.495 1.836-1.139 2.631-1.934 4.211-4.211 4.211-11.063 0-15.274s-11.063-4.211-15.274 0c-0.366 0.366-0.366 0.96 0 1.327s0.96 0.366 1.327 0c3.48-3.48 9.141-3.479 12.621 0s3.48 9.141 0 12.621c-0.649 0.649-1.397 1.198-2.221 1.622l-0.050 0.023-0.127-0.212c-0.147-0.243-0.396-0.412-0.685-0.449l-0.005-0c-0.035-0.005-0.074-0.007-0.115-0.007-0.259 0-0.494 0.105-0.664 0.275l-1.28 1.28c-2.656 0.347-5.439-0.496-7.475-2.532-0.366-0.366-0.96-0.366-1.327 0s-0.366 0.96 0 1.327c1.912 1.912 4.369 2.956 6.875 3.131l-2.134 2.134c-0.038-0.017-0.085-0.032-0.133-0.044l-0.006-0.001c-5.989-1.408-10.172-6.695-10.172-12.857 0-3.528 1.374-6.844 3.868-9.339s5.811-3.868 9.339-3.868c7.282 0 13.207 5.925 13.207 13.207 0 0.518 0.42 0.938 0.938 0.938s0.938-0.42 0.938-0.938c0-8.317-6.766-15.083-15.083-15.083-4.029 0-7.817 1.569-10.665 4.418s-4.418 6.636-4.418 10.665c0 3.42 1.176 6.769 3.312 9.432 1.896 2.363 4.479 4.111 7.353 4.993l-0.891 0.891c-0.366 0.366-0.366 0.96 0 1.327 0.183 0.183 0.423 0.275 0.663 0.275s0.48-0.092 0.663-0.275l6.044-6.044c0.478-0.093 0.878-0.197 1.269-0.323l-0.077 0.021 2.401 4.013c0.167 0.275 0.465 0.456 0.805 0.456 0.241 0 0.46-0.091 0.627-0.24l-0.001 0.001 6.604-5.909 0.003 1.255c0.001 0.517 0.421 0.936 0.938 0.936h0.002c0.518-0.001 0.937-0.422 0.936-0.94l-0.008-3.688z"></path>
</symbol>
<symbol id="icon-expense" viewBox="0 0 32 32">
<path fill="#f4b2b0" style="fill: var(--color1, #f4b2b0)" d="M24.464 14.71c0 5.305-4.301 9.606-9.606 9.606s-9.606-4.301-9.606-9.606c0-5.305 4.301-9.606 9.606-9.606s9.606 4.301 9.606 9.606z"></path>
<path fill="#b3404a" style="fill: var(--color2, #b3404a)" d="M14.858 25.248c-2.815 0-5.461-1.096-7.452-3.087-0.364-0.364-0.364-0.955 0-1.319s0.955-0.364 1.319 0c3.381 3.382 8.884 3.382 12.265 0s3.382-8.884 0-12.265c-3.381-3.381-8.884-3.382-12.265 0-0.364 0.364-0.955 0.364-1.319 0s-0.364-0.955 0-1.319c4.109-4.109 10.795-4.109 14.904 0s4.109 10.795 0 14.904c-1.991 1.991-4.637 3.087-7.452 3.087z"></path>
<path fill="#b3404a" style="fill: var(--color2, #b3404a)" d="M14.858 29.42c-8.111 0-14.71-6.599-14.71-14.71 0-3.929 1.53-7.623 4.308-10.402s6.472-4.308 10.401-4.308c8.111 0 14.71 6.599 14.71 14.71 0 0.515-0.418 0.933-0.933 0.933s-0.933-0.418-0.933-0.933c0-7.082-5.762-12.844-12.844-12.844-3.431 0-6.656 1.336-9.082 3.762s-3.762 5.651-3.762 9.082c0 7.082 5.762 12.844 12.844 12.844 3.589 0 6.918-1.443 9.374-4.063 0.352-0.376 0.943-0.395 1.319-0.043s0.395 0.943 0.043 1.319c-2.771 2.957-6.684 4.653-10.735 4.653z"></path>
<path fill="#b3404a" style="fill: var(--color2, #b3404a)" d="M15.628 13.987v-2.736c1.092 0.191 1.256 0.797 1.281 1.153 0.006 0.091 0.081 0.162 0.173 0.162 0 0 0 0 0 0h1.193c0.1 0 0.179-0.085 0.174-0.185-0.077-1.501-1.106-2.466-2.82-2.683v-0.92c0-0.096-0.078-0.174-0.174-0.174h-1.193c-0.096 0-0.174 0.078-0.174 0.174v0 0.92c-1.784 0.226-2.825 1.262-2.825 2.868s1.041 2.642 2.825 2.867v2.736c-1.092-0.192-1.256-0.797-1.281-1.153-0.006-0.091-0.081-0.162-0.173-0.162-0 0-0 0-0 0h-1.193c-0.1 0-0.179 0.085-0.174 0.185 0.077 1.5 1.106 2.466 2.82 2.683v0.92c0 0.096 0.078 0.174 0.174 0.174h1.193c0.096 0 0.174-0.078 0.174-0.174v0-0.92c1.784-0.226 2.825-1.262 2.825-2.868s-1.041-2.642-2.825-2.867zM14.088 13.88c-1.285-0.225-1.285-1.024-1.285-1.314s0-1.089 1.285-1.314v2.629zM15.628 18.169v-2.629c1.285 0.225 1.285 1.024 1.285 1.314s-0 1.089-1.285 1.314zM31.578 28.124c-0.364-0.364-0.955-0.364-1.319 0l-0.691 0.691v-8.926c0-0.515-0.418-0.933-0.933-0.933s-0.933 0.418-0.933 0.933v8.926l-0.691-0.691c-0.364-0.364-0.955-0.364-1.319 0s-0.364 0.955 0 1.319l2.283 2.283c0.182 0.182 0.421 0.273 0.66 0.273s0.477-0.091 0.66-0.273l2.283-2.283c0.364-0.364 0.364-0.955 0-1.319z"></path>
</symbol>
<symbol id="icon-income" viewBox="0 0 32 32">
<path fill="#cff09e" style="fill: var(--color3, #cff09e)" d="M25.619 15.083c0 5.447-4.416 9.863-9.863 9.863s-9.863-4.416-9.863-9.863c0-5.447 4.416-9.863 9.863-9.863s9.863 4.416 9.863 9.863z"></path>
<path fill="#507c5c" style="fill: var(--color4, #507c5c)" d="M16.548 14.341v-2.809c1.121 0.197 1.29 0.818 1.315 1.184 0.006 0.093 0.083 0.166 0.178 0.166 0 0 0 0 0 0h1.225c0.103 0 0.184-0.087 0.178-0.19-0.079-1.541-1.135-2.532-2.896-2.754v-0.945c0-0.098-0.080-0.178-0.178-0.178v0h-1.224c-0.098 0-0.178 0.080-0.178 0.178v0.945c-1.832 0.232-2.901 1.295-2.901 2.944s1.069 2.712 2.901 2.944v2.809c-1.121-0.197-1.29-0.818-1.315-1.184-0.006-0.093-0.083-0.166-0.178-0.166-0 0-0 0-0 0h-1.225c-0.103 0-0.184 0.087-0.178 0.19 0.079 1.541 1.135 2.532 2.896 2.754v0.945c0 0.098 0.080 0.178 0.178 0.178v0h1.224c0.098 0 0.178-0.080 0.178-0.178v0-0.945c1.832-0.232 2.901-1.295 2.901-2.944s-1.069-2.713-2.901-2.944zM14.967 14.231c-1.319-0.231-1.32-1.051-1.32-1.349s0-1.118 1.32-1.35v2.699zM16.548 18.634v-2.699c1.319 0.231 1.32 1.051 1.32 1.35s-0 1.118-1.32 1.349z"></path>
<path fill="#507c5c" style="fill: var(--color4, #507c5c)" d="M31.318 21.264c-0.001-0.259-0.106-0.493-0.276-0.663l-0-0c-0.176-0.175-0.418-0.272-0.664-0.273l-3.688 0.008c-0.518 0.001-0.937 0.422-0.936 0.94s0.421 0.936 0.938 0.936h0.002l1.607-0.004-5.862 5.245-1.675-2.8c0.947-0.495 1.836-1.139 2.631-1.934 4.211-4.211 4.211-11.063 0-15.274s-11.063-4.211-15.274 0c-0.366 0.366-0.366 0.96 0 1.327s0.96 0.366 1.327 0c3.48-3.48 9.141-3.479 12.621 0s3.48 9.141 0 12.621c-0.649 0.649-1.397 1.198-2.221 1.622l-0.050 0.023-0.127-0.212c-0.147-0.243-0.396-0.412-0.685-0.449l-0.005-0c-0.035-0.005-0.074-0.007-0.115-0.007-0.259 0-0.494 0.105-0.664 0.275l-1.28 1.28c-2.656 0.347-5.439-0.496-7.475-2.532-0.366-0.366-0.96-0.366-1.327 0s-0.366 0.96 0 1.327c1.912 1.912 4.369 2.956 6.875 3.131l-2.134 2.134c-0.038-0.017-0.085-0.032-0.133-0.044l-0.006-0.001c-5.989-1.408-10.172-6.695-10.172-12.857 0-3.528 1.374-6.844 3.868-9.339s5.811-3.868 9.339-3.868c7.282 0 13.207 5.925 13.207 13.207 0 0.518 0.42 0.938 0.938 0.938s0.938-0.42 0.938-0.938c0-8.317-6.766-15.083-15.083-15.083-4.029 0-7.817 1.569-10.665 4.418s-4.418 6.636-4.418 10.665c0 3.42 1.176 6.769 3.312 9.432 1.896 2.363 4.479 4.111 7.353 4.993l-0.891 0.891c-0.366 0.366-0.366 0.96 0 1.327 0.183 0.183 0.423 0.275 0.663 0.275s0.48-0.092 0.663-0.275l6.044-6.044c0.478-0.093 0.878-0.197 1.269-0.323l-0.077 0.021 2.401 4.013c0.167 0.275 0.465 0.456 0.805 0.456 0.241 0 0.46-0.091 0.627-0.24l-0.001 0.001 6.604-5.909 0.003 1.255c0.001 0.517 0.421 0.936 0.938 0.936h0.002c0.518-0.001 0.937-0.422 0.936-0.94l-0.008-3.688z"></path>
</symbol>
<symbol id="icon-menu-burger" viewBox="0 0 32 32">
<path fill="#507c5c" style="fill: var(--color4, #507c5c)" d="M31.318 21.264c-0.001-0.259-0.106-0.493-0.276-0.663l-0-0c-0.176-0.175-0.418-0.272-0.664-0.273l-3.688 0.008c-0.518 0.001-0.937 0.422-0.936 0.94s0.421 0.936 0.938 0.936h0.002l1.607-0.004-5.862 5.245-1.675-2.8c0.947-0.495 1.836-1.139 2.631-1.934 4.211-4.211 4.211-11.063 0-15.274s-11.063-4.211-15.274 0c-0.366 0.366-0.366 0.96 0 1.327s0.96 0.366 1.327 0c3.48-3.48 9.141-3.479 12.621 0s3.48 9.141 0 12.621c-0.649 0.649-1.397 1.198-2.221 1.622l-0.050 0.023-0.127-0.212c-0.147-0.243-0.396-0.412-0.685-0.449l-0.005-0c-0.035-0.005-0.074-0.007-0.115-0.007-0.259 0-0.494 0.105-0.664 0.275l-1.28 1.28c-2.656 0.347-5.439-0.496-7.475-2.532-0.366-0.366-0.96-0.366-1.327 0s-0.366 0.96 0 1.327c1.912 1.912 4.369 2.956 6.875 3.131l-2.134 2.134c-0.038-0.017-0.085-0.032-0.133-0.044l-0.006-0.001c-5.989-1.408-10.172-6.695-10.172-12.857 0-3.528 1.374-6.844 3.868-9.339s5.811-3.868 9.339-3.868c7.282 0 13.207 5.925 13.207 13.207 0 0.518 0.42 0.938 0.938 0.938s0.938-0.42 0.938-0.938c0-8.317-6.766-15.083-15.083-15.083-4.029 0-7.817 1.569-10.665 4.418s-4.418 6.636-4.418 10.665c0 3.42 1.176 6.769 3.312 9.432 1.896 2.363 4.479 4.111 7.353 4.993l-0.891 0.891c-0.366 0.366-0.366 0.96 0 1.327 0.183 0.183 0.423 0.275 0.663 0.275s0.48-0.092 0.663-0.275l6.044-6.044c0.478-0.093 0.878-0.197 1.269-0.323l-0.077 0.021 2.401 4.013c0.167 0.275 0.465 0.456 0.805 0.456 0.241 0 0.46-0.091 0.627-0.24l-0.001 0.001 6.604-5.909 0.003 1.255c0.001 0.517 0.421 0.936 0.938 0.936h0.002c0.518-0.001 0.937-0.422 0.936-0.94l-0.008-3.688z"></path>
</symbol>
<symbol id="icon-more" viewBox="0 0 32 32">
<path fill="#507c5c" style="fill: var(--color4, #507c5c)" d="M31.318 21.264c-0.001-0.259-0.106-0.493-0.276-0.663l-0-0c-0.176-0.175-0.418-0.272-0.664-0.273l-3.688 0.008c-0.518 0.001-0.937 0.422-0.936 0.94s0.421 0.936 0.938 0.936h0.002l1.607-0.004-5.862 5.245-1.675-2.8c0.947-0.495 1.836-1.139 2.631-1.934 4.211-4.211 4.211-11.063 0-15.274s-11.063-4.211-15.274 0c-0.366 0.366-0.366 0.96 0 1.327s0.96 0.366 1.327 0c3.48-3.48 9.141-3.479 12.621 0s3.48 9.141 0 12.621c-0.649 0.649-1.397 1.198-2.221 1.622l-0.050 0.023-0.127-0.212c-0.147-0.243-0.396-0.412-0.685-0.449l-0.005-0c-0.035-0.005-0.074-0.007-0.115-0.007-0.259 0-0.494 0.105-0.664 0.275l-1.28 1.28c-2.656 0.347-5.439-0.496-7.475-2.532-0.366-0.366-0.96-0.366-1.327 0s-0.366 0.96 0 1.327c1.912 1.912 4.369 2.956 6.875 3.131l-2.134 2.134c-0.038-0.017-0.085-0.032-0.133-0.044l-0.006-0.001c-5.989-1.408-10.172-6.695-10.172-12.857 0-3.528 1.374-6.844 3.868-9.339s5.811-3.868 9.339-3.868c7.282 0 13.207 5.925 13.207 13.207 0 0.518 0.42 0.938 0.938 0.938s0.938-0.42 0.938-0.938c0-8.317-6.766-15.083-15.083-15.083-4.029 0-7.817 1.569-10.665 4.418s-4.418 6.636-4.418 10.665c0 3.42 1.176 6.769 3.312 9.432 1.896 2.363 4.479 4.111 7.353 4.993l-0.891 0.891c-0.366 0.366-0.366 0.96 0 1.327 0.183 0.183 0.423 0.275 0.663 0.275s0.48-0.092 0.663-0.275l6.044-6.044c0.478-0.093 0.878-0.197 1.269-0.323l-0.077 0.021 2.401 4.013c0.167 0.275 0.465 0.456 0.805 0.456 0.241 0 0.46-0.091 0.627-0.24l-0.001 0.001 6.604-5.909 0.003 1.255c0.001 0.517 0.421 0.936 0.938 0.936h0.002c0.518-0.001 0.937-0.422 0.936-0.94l-0.008-3.688z"></path>
</symbol>
</defs>
</svg>
